<?xml version="1.0" encoding="UTF-8"?>
<!DOCTYPE svg PUBLIC "-//W3C//DTD SVG 1.1//EN" "http://www.w3.org/Graphics/SVG/1.1/DTD/svg11.dtd">
<!-- Creator: CorelDRAW 2017 -->
<svg xmlns="http://www.w3.org/2000/svg" xml:space="preserve" width="296px" height="418px" version="1.1" style="shape-rendering:geometricPrecision; text-rendering:geometricPrecision; image-rendering:optimizeQuality; fill-rule:evenodd; clip-rule:evenodd"
viewBox="0 0 296 417.998"
 xmlns:xlink="http://www.w3.org/1999/xlink">
 <defs>
  <style type="text/css">
   <![CDATA[
    .fil19 {fill:#0D853A}
    .fil10 {fill:#0E863D}
    .fil6 {fill:#10883E}
    .fil18 {fill:#11863A}
    .fil0 {fill:#11893F}
    .fil17 {fill:#12893D}
    .fil22 {fill:#65B484}
    .fil3 {fill:#76BB93}
    .fil21 {fill:#79BC8E}
    .fil15 {fill:#7CC196}
    .fil9 {fill:#86C49B}
    .fil2 {fill:#8AC7A3}
    .fil12 {fill:#94CAA7}
    .fil16 {fill:#98D1AC}
    .fil11 {fill:#9CCCAB}
    .fil20 {fill:#9DCEB0}
    .fil14 {fill:#AFD6C1}
    .fil8 {fill:#BAE4CF}
    .fil13 {fill:#C6E4CC}
    .fil4 {fill:#FAFCFB}
    .fil7 {fill:#FBFDFA}
    .fil5 {fill:#FDFDFD}
    .fil1 {fill:#FDFFFE}
   ]]>
  </style>
 </defs>
<symbol id="emergencia" viewBox="9.81 5.409 276.38 407.181">
 <path class="fil0" d="M145.375 76.431c-4.36,-27.256 34.544,-31.747 38.059,-6.916 3.776,26.677 -34.347,30.112 -38.059,6.916zm-28.231 99.738c-3.414,-0.277 -2.033,-0.329 -2.001,10.001l-0.138 35.489 -74.778 0.337 -0.234 -20.008c0.242,-5.314 -0.264,-1.209 2.014,-2.891l50.114 -0.021c0.231,-10.967 0.065,-21.938 0.032,-32.681 -0.044,-14.543 23.311,-54.351 28.503,-71.725l-20.314 -0.001c-3.821,3.034 -13.604,27.169 -15.825,33.188l-20.392 -7.208 20.957 -48.47 42.478 -0.148 0.36 -37.195 5.613 0.116 0.009 37.151 4.771 0.189c1.702,20.981 15.3,24.657 31.295,26.277 7.362,0.746 1.551,9.809 3.723,31.196l40.561 0.017 0.207 19.66c0.195,2.294 -10.789,1.307 -14.893,1.307 -9.566,0 -44.409,1.035 -48.67,-0.827l-0.279 -17.103c-0.908,-2.798 0.585,-0.293 -1.593,-2.057l-14.458 32.882c6.597,2.305 24.787,13.912 32.636,18.339 6.073,3.425 4.874,1.922 8.337,8.421 4.031,7.566 7.699,14.417 11.6,22.012 3.046,5.93 9.596,17.215 11.195,22.647 6.124,-0.423 15.537,-3.734 21.474,-5.866l0.23 -174.907c-11.971,-4.1 -50.332,-12.926 -67.792,-17.43l-4.693 -2.315 108.354 0.01 0.008 217.114 -107.727 -0.958 30.616 -9.18c-2.031,-5.051 -6.184,-10.478 -9.233,-15.477l-19.285 -30.135c-1.861,-1.835 -13.194,-8.312 -16.418,-9.359l0.053 64.698 -5.638 0.494 -0.04 -68.548 -10.739 -7.035zm-106.054 103.875l273.467 -0.27 0.141 -273.543 -273.552 0.179 -0.056 273.634z"/>
 <path class="fil0" d="M239.921 379.151l6.591 -0.504c0.317,6.324 0.947,22.405 -0.485,27.421l-5.591 0.153 -0.515 -27.07zm14.773 26.155c-1.31,0.848 1.9,1.097 -3.072,1.194 -2.54,0.05 -2.17,-0.378 -3.457,-0.853l1.264 -2.65 9.11 -23.873 5.918 0.033 10.303 26.697 -6.58 0.126 -2.016 -5.786 -9.179 0.022 -2.291 5.09zm-64.536 -0.603c-1.188,2.564 -1.291,1.769 -5.258,1.374 -1.218,-4.045 -0.621,-8.944 -0.61,-13.282 0.006,-2.315 0.021,-4.618 -0.019,-6.934 -0.116,-6.584 -0.203,-5.376 1.79,-6.797l4.581 0.185 10.886 16.841 0.275 -17.032 5.374 0.052 0.278 26.882 -6.608 0.008 -8.438 -14.343c-2.023,-2.752 -0.292,-0.777 -2.112,-2.07l-0.139 15.116zm-63.038 -1.496l1.018 3.053c-1.253,0.135 -2.068,0.429 -3.15,0.302 -5.642,-0.662 -1.162,0.088 -3.23,-1.161 -1.51,-9.12 0.517,-10.326 -9.996,-9.602l-0.614 10.364c-1.275,0.072 -1.957,0.325 -2.975,0.243l-3.235 -0.896 -0.084 -26.451c12.261,0.091 23.529,-3.238 22.036,10.966l-2.737 2.765c1.137,2.982 2.805,5.273 2.967,10.417zm-74.953 2.77l-5.57 0.074 0.018 -26.947 8.322 -0.022 6.057 17.386 6.023 -17.147 8.337 -0.227 0.207 26.692 -5.704 0.116 -0.14 -16.708c-7.145,12.684 -2.117,17.426 -10.912,16.565l-6.212 -16.688 -0.426 16.906zm178.675 -10.028l5.266 -0.385c-1.599,16.839 -23.954,13.955 -24.736,-1.774 -0.885,-17.803 21.506,-21.026 24.651,-5.537 -6.799,0.129 -5.254,-0.355 -8.831,-4.334 -8.23,-0.709 -11.896,5.372 -9.239,12.853 0.995,2.802 3.296,4.907 6.887,4.748 4.715,-0.209 4.153,-2.069 6.002,-5.571zm-64.406 4.451l14.477 0.415c0.093,1.331 0.399,1.785 0.146,2.857 -0.454,1.919 -0.335,1.07 -1.079,2.233l-19.632 0.138 0.002 -26.948 19.924 0.019 0.292 4.981 -13.719 0.26 -0.494 5.376 12.952 0.134 -0.079 4.6 -12.789 0.215 -0.001 5.72zm-11.67 -15.095l0.663 2.168c-0.004,0.136 -0.156,0.506 -0.23,0.761 -2.46,0.458 -1.623,0.845 -5.024,-0.106 -0.186,-0.052 -0.48,-0.247 -0.726,-0.359 -3.395,-7.645 -12.757,-4.794 -12.647,5.03 0.115,10.281 11.184,12.042 13.176,3.95 -5.855,-2.551 -4.625,2.374 -5.62,-3.954 3.081,-2.144 6.483,-1.484 11.461,-1.215l-0.01 14.361c-4.839,-0.007 -2.588,0.716 -5.047,-1.917 -8.349,7.539 -22.769,-0.73 -19.628,-15.091 2.477,-11.322 17.371,-15.237 23.632,-3.628zm-67.979 14.508l14.311 0.885 -0.029 5.435c-3.751,0.411 -7.106,0.222 -10.613,0.226 -5.521,0.006 -7.732,0.872 -9.91,-1.381l-0.19 -25.961 20.469 -0.082c0.273,6.561 0.074,3.393 -1.467,5.086l-12.34 0.346 -0.37 5.227 12.872 0.239 -0.006 4.823 -12.775 0.045 0.048 5.112zm-58.355 0.128l14.524 0.704 0.333 4.995c-3.014,1.138 -18.539,1.956 -20.989,-0.552l-0.057 -25.93c3.405,-0.098 6.62,-0.069 9.883,-0.069 1.648,0 3.348,-0.055 4.983,-0.041 0.549,0.005 2.481,0.003 2.92,0.071 3.54,0.551 0.838,0.135 2.276,0.824l0.132 4.382 -13.762 0.018 -0.361 5.287 12.807 0.218 -0.033 4.769 -12.66 0.075 0.004 5.249zm109.705 -30.934c-3.224,1.474 -10.161,1.167 -15.016,0.541l0.379 -26.847c3.53,-0.697 14.409,-1.894 16.074,1.159 10.778,1.837 10.711,23.279 -1.437,25.147zm20.114 -15.825l12.078 0.355 -0.058 4.533 -12.908 0.056 -0.054 6.352c14.395,0.177 14.493,-1.907 14.478,5.091l-19.876 -0.102 -0.732 -26.668c3.591,-0.805 6.746,-0.526 10.458,-0.542 6.86,-0.03 8.325,-1.044 9.914,1.375l-0.152 3.172c-2.245,2.354 -6.921,1.044 -13.621,1.375l0.473 5.003zm-4.366 -47.005l5.561 0.091 -0.274 26.79 -5.738 0.112 0.451 -26.993zm-22.903 0.573c0.613,-0.546 -0.174,-2.574 6.571,-0.497l0.09 21.142 12.796 0.578c0.201,1.452 0.633,1.727 0.162,3.418 -0.794,2.855 0.508,0.067 -1.709,1.95l-17.915 -0.146 0.005 -26.445zm84.012 24.528l0.858 2.039c-3.876,0.508 -5.362,1.462 -6.6,-1.658l-2.136 -4.471 -9.205 -0.05 -2.755 6.059 -5.663 -0.32 10.219 -26.61 6.124 0.019 9.158 24.992zm-105.885 0.474c-1.532,2.328 2.132,1.032 -2.807,2.042 -1.319,0.27 -2.464,-0.299 -3.828,-0.637l1.132 -1.516 9.305 -25.296 6.067 -0.136 8.702 24.438c0.868,0.954 0.876,-0.835 1.403,2.826 -1.172,0.046 -2.897,0.236 -4.05,0.054 -1.95,-0.308 -1.469,-0.579 -2.35,-1.123 -1.428,-3.772 -0.252,-3.455 -3.558,-5.356l-8.067 0.308 -1.949 4.396zm55.785 -25.476c13.101,-0.487 23.559,-1.2 23.459,13.357 -0.098,14.431 -10.579,13.802 -23.802,13.449l0.343 -26.806zm-68.551 19.292c-2.752,-5.022 -21.61,-4.567 -14.713,-15.798 3.899,-6.347 20.256,-6.016 19.208,4.417l-4.451 -0.017c-3.011,-3.273 -4.098,-5.904 -9.095,-2.627 -2.395,5.192 4.909,4.472 9.781,6.435 4.537,1.829 6.821,6.215 4.026,11.33 -3.785,6.927 -22.269,6.253 -21.17,-5.289l4.595 -0.017c1.392,1.614 1.824,2.835 3.027,4.293 5.164,1.095 6.666,1.463 8.792,-2.727zm-85.12 85.721l273.491 -0.209 -0.126 -108.982 -273.3 0.139 -0.065 109.052z"/>
 <path class="fil1" d="M42.007 199.097c-2.218,6.532 -0.846,14.939 -0.902,21.874l72.917 0.011 0.437 -45.582c5.217,-2.172 0.9,-0.739 2.685,0.769l10.739 7.035 0.04 68.548 5.638 -0.494 -0.053 -64.698c3.224,1.047 14.557,7.524 16.418,9.359l19.285 30.135c3.049,4.999 7.202,10.426 9.233,15.477l-30.616 9.18 107.727 0.958 -0.008 -217.114 -108.354 -0.01 4.693 2.315c17.46,4.504 55.821,13.33 67.792,17.43l-0.23 174.907c-5.937,2.132 -15.35,5.443 -21.474,5.866 -1.599,-5.432 -8.149,-16.717 -11.195,-22.647 -3.901,-7.595 -7.569,-14.446 -11.6,-22.012 -3.463,-6.499 -2.264,-4.996 -8.337,-8.421 -7.849,-4.427 -26.039,-16.034 -32.636,-18.339l14.458 -32.882 1.996 -2.63c1.584,5.109 0.75,15.613 0.602,21.62l62.837 -0.31 -0.207 -19.66 -40.561 -0.017c-2.172,-21.387 3.639,-30.45 -3.723,-31.196 -15.995,-1.62 -29.593,-5.296 -31.295,-26.277l-4.771 -0.189 -0.009 -37.151 -5.613 -0.116 -0.36 37.195 -42.478 0.148 -20.957 48.47 20.392 7.208c2.221,-6.019 12.004,-30.154 15.825,-33.188l20.314 0.001c-5.192,17.374 -28.547,57.182 -28.503,71.725 0.033,10.743 0.199,21.714 -0.032,32.681l-50.114 0.021z"/>
 <path class="fil1" d="M145.375 76.431c3.712,23.196 41.835,19.761 38.059,-6.916 -3.515,-24.831 -42.419,-20.34 -38.059,6.916z"/>
 <path class="fil2" d="M11.146 6.41l273.552 -0.179 -0.141 273.543 -273.467 0.27 0.056 -273.634zm-0.171 274.067l273.771 0.288c2.411,-5.276 1,-121.418 1,-137.107 0,-16.922 1.442,-131.822 -0.872,-138.01l-273.997 -0.239c-1.794,6.535 -1.021,271.967 0.098,275.068z"/>
 <path class="fil3" d="M11.288 302.237l273.3 -0.139 0.126 108.982 -273.491 0.209 0.065 -109.052zm-0.334 -0.791c-1.239,4.475 -1.257,101.099 -0.288,109.937 4.668,1.23 265.335,1.887 274.472,0.145 1.281,-8.87 1.253,-105.452 -0.368,-110.372l-273.816 0.29z"/>
 <path class="fil4" d="M52.593 389.071l6.212 16.688c8.795,0.861 3.767,-3.881 10.912,-16.565l0.14 16.708 5.704 -0.116 -0.207 -26.692 -8.337 0.227 -6.023 17.147 -6.057 -17.386 -8.322 0.022 -0.018 26.947 5.57 -0.074 0.426 -16.906z"/>
 <path class="fil4" d="M170.569 311.525c7.069,-0.884 11.649,0.943 11.742,8.111 0.095,7.366 -4.65,8.876 -11.679,8.087l-0.063 -16.198zm-6.018 21.557c13.223,0.353 23.704,0.982 23.802,-13.449 0.1,-14.557 -10.358,-13.844 -23.459,-13.357l-0.343 26.806z"/>
 <path class="fil4" d="M190.158 404.703l0.139 -15.116c1.82,1.293 0.089,-0.682 2.112,2.07l8.438 14.343 6.608 -0.008 -0.278 -26.882 -5.374 -0.052 -0.275 17.032 -10.886 -16.841 -4.581 -0.185c-1.88,5.965 -1.033,19.423 -0.754,26.293l4.851 -0.654z"/>
 <path class="fil4" d="M149.449 387.769l4.28 0.036c2.097,-1.368 0.522,0.622 1.037,-2.5 -6.261,-11.609 -21.155,-7.694 -23.632,3.628 -3.141,14.361 11.279,22.63 19.628,15.091 2.459,2.633 0.208,1.91 5.047,1.917l0.01 -14.361c-4.978,-0.269 -8.38,-0.929 -11.461,1.215 0.995,6.328 -0.235,1.403 5.62,3.954 -1.992,8.092 -13.061,6.331 -13.176,-3.95 -0.11,-9.824 9.252,-12.675 12.647,-5.03z"/>
 <path class="fil4" d="M111.131 383.958c3.63,-0.043 5.978,-0.539 8.984,0.874 3.612,7.505 -3.782,6.481 -9.307,6.453l0.323 -7.327zm-6.193 21.552l5.473 -0.089c0.037,-1.561 -0.041,-3.186 -0.014,-4.761 0.006,-0.372 0.059,-2.62 0.12,-2.86 0.635,-2.501 -0.352,-0.43 1.245,-2.001 10.513,-0.724 8.486,0.482 9.996,9.602l4.288 0.261c1.956,-1.397 0.499,0.552 1.074,-2.455 -0.162,-5.144 -1.83,-7.435 -2.967,-10.417l2.737 -2.765c1.493,-14.204 -9.775,-10.875 -22.036,-10.966l0.084 26.451z"/>
 <path class="fil4" d="M96.343 325.568c-2.126,4.19 -3.628,3.822 -8.792,2.727 -1.203,-1.458 -1.635,-2.679 -3.027,-4.293l-4.595 0.017c-1.099,11.542 17.385,12.216 21.17,5.289 2.795,-5.115 0.511,-9.501 -4.026,-11.33 -4.872,-1.963 -12.176,-1.243 -9.781,-6.435 4.997,-3.277 6.084,-0.646 9.095,2.627l4.451 0.017c1.048,-10.433 -15.309,-10.764 -19.208,-4.417 -6.897,11.231 11.961,10.776 14.713,15.798z"/>
 <path class="fil4" d="M130.033 364.478c-1.581,-2.88 -1.01,-4.455 -0.991,-8.264 0.015,-3.091 -0.134,-5.399 0.371,-8.446 2.708,-0.748 5.727,-1.554 7.3,0.814 6.95,1.91 4.613,10.591 2.615,15.073l-9.295 0.823zm8.104 4.529c12.148,-1.868 12.215,-23.31 1.437,-25.147l-15.588 -0.699 0.009 25.854 14.142 -0.008z"/>
 <path class="fil4" d="M179.98 405.905l0.208 -4.316c-2.284,-0.054 -4.47,-0.076 -6.687,-0.049 -0.674,0.008 -3.566,0.116 -4.005,0.062 -5.051,-0.625 -1.233,0.247 -3.06,-1.202l0.001 -5.72 12.789 -0.215 0.079 -4.6 -12.952 -0.134 0.494 -5.376 13.719 -0.26 -0.292 -4.981 -19.924 -0.019 -0.002 26.948 19.632 -0.138z"/>
 <path class="fil4" d="M22.3 405.088c3.915,0.416 16.432,1.088 19.997,-0.43 -0.695,-6.215 -1.043,-2.484 -10.251,-3.132 -5.681,-0.4 -2.151,0.408 -3.614,-1.585l-0.004 -5.249 12.66 -0.075 0.033 -4.769 -12.807 -0.218 0.361 -5.287 13.762 -0.018 -0.132 -4.382c-1.438,-0.689 1.264,-0.273 -2.276,-0.824 -0.439,-0.068 -2.371,-0.066 -2.92,-0.071 -1.635,-0.014 -3.335,0.041 -4.983,0.041 -3.263,0 -6.478,-0.029 -9.883,0.069l0.057 25.93z"/>
 <path class="fil4" d="M261.106 387.489c0.544,0.335 0.815,0.37 0.875,0.739 0.059,0.363 0.367,0.478 0.443,0.628l1.972 6.765 -5.788 0.046 2.498 -8.178zm-11.677 15.508c-0.474,3.874 0.811,2.524 5.265,2.309l2.291 -5.09 9.179 -0.022 2.016 5.786 6.58 -0.126 -10.303 -26.697 -5.918 -0.033 -9.11 23.873z"/>
 <path class="fil4" d="M230.842 395.949c-1.849,3.502 -1.287,5.362 -6.002,5.571 -3.591,0.159 -5.892,-1.946 -6.887,-4.748 -2.657,-7.481 1.009,-13.562 9.239,-12.853 3.577,3.979 2.032,4.463 8.831,4.334 -3.145,-15.489 -25.536,-12.266 -24.651,5.537 0.782,15.729 23.137,18.613 24.736,1.774l-5.266 0.385z"/>
 <path class="fil4" d="M203.01 313.986l2.482 8.689 -6.064 -0.433 3.582 -8.256zm6.242 17.673c1.554,0.669 0.716,1.038 2.855,0.979 5.249,-0.146 0.986,0.667 2.887,-1.36l-9.158 -24.992 -6.124 -0.019 -10.219 26.61 5.663 0.32 2.755 -6.059 9.205 0.05 2.136 4.471z"/>
 <path class="fil5" d="M151.911 369.467l19.876 0.102c0.015,-6.998 -0.083,-4.914 -14.478,-5.091l0.054 -6.352 12.908 -0.056 0.058 -4.533 -12.078 -0.355c-1.279,-1.445 -0.996,-0.212 -1.403,-2.832 -0.17,-1.093 0.213,-1.679 0.314,-2.951l14.237 -0.595 0.152 -3.172 -19.72 -0.267 0.08 26.102z"/>
 <path class="fil4" d="M116.118 313.979l2.768 8.502 -6.23 0.04 3.462 -8.542zm-12.512 17.662c1.35,2.399 3.261,0.998 5.503,0.111l1.949 -4.396 8.067 -0.308c3.306,1.901 2.13,1.584 3.558,5.356l4.352 0.227c1.495,-1.51 0.575,0.735 0.645,-1.984l-8.702 -24.438 -6.067 0.136 -9.305 25.296z"/>
 <path class="fil5" d="M81.651 405.224l14.83 0.278c3.925,-0.126 3.993,1.228 4.017,-4.129 -2.367,0.02 -4.734,0.011 -7.098,0.054 -6.691,0.122 -5.324,0.292 -6.613,-1.614l-0.048 -5.112 12.775 -0.045 0.006 -4.823 -12.872 -0.239 0.37 -5.227 12.34 -0.346 -0.002 -4.347 -17.977 0.063 0.272 25.487z"/>
 <polygon class="fil5" points="149.358,332.382 149.991,328.439 137.4,328.271 136.764,306.481 131.849,306.593 131.799,332.398 "/>
 <path class="fil6" d="M170.632 327.723c7.029,0.789 11.774,-0.721 11.679,-8.087 -0.093,-7.168 -4.673,-8.995 -11.742,-8.111l0.063 16.198z"/>
 <path class="fil6" d="M130.033 364.478l9.295 -0.823c1.998,-4.482 4.335,-13.163 -2.615,-15.073l-6.749 -0.477 0.069 16.373z"/>
 <polygon class="fil7" points="153.434,333.17 159.172,333.058 159.446,306.268 153.885,306.177 "/>
 <path class="fil8" d="M42.007 199.097c-2.278,1.682 -1.772,-2.423 -2.014,2.891l0.234 20.008 74.778 -0.337 0.138 -35.489c-0.032,-10.33 -1.413,-10.278 2.001,-10.001 -1.785,-1.508 2.532,-2.941 -2.685,-0.769l-0.437 45.582 -72.917 -0.011c0.056,-6.935 -1.316,-15.342 0.902,-21.874z"/>
 <path class="fil5" d="M241.717 379.389c-0.108,0.26 -0.285,0.565 -0.341,0.774 -0.057,0.215 -0.224,0.546 -0.282,0.819l-0.109 24.312 4.688 -0.138c0.283,-4.332 0.14,-8.972 0.161,-13.35 0.01,-2.269 0.097,-4.705 0.051,-6.95l-1.202 -5.411 -2.966 -0.056z"/>
 <path class="fil9" d="M148.664 130.762c2.178,1.764 0.685,-0.741 1.593,2.057l0.279 17.103c4.261,1.862 39.104,0.827 48.67,0.827 4.104,0 15.088,0.987 14.893,-1.307l-62.837 0.31c0.148,-6.007 0.982,-16.511 -0.602,-21.62l-1.996 2.63z"/>
 <path class="fil10" d="M110.808 391.285c5.525,0.028 12.919,1.052 9.307,-6.453 -3.006,-1.413 -5.354,-0.917 -8.984,-0.874l-0.323 7.327z"/>
 <path class="fil11" d="M241.717 379.389l2.966 0.056 1.202 5.411c0.046,2.245 -0.041,4.681 -0.051,6.95 -0.021,4.378 0.122,9.018 -0.161,13.35l-4.688 0.138 0.109 -24.312c0.058,-0.273 0.225,-0.604 0.282,-0.819 0.056,-0.209 0.233,-0.514 0.341,-0.774zm-1.281 26.832l5.591 -0.153c1.432,-5.016 0.802,-21.097 0.485,-27.421l-6.591 0.504 0.515 27.07z"/>
 <path class="fil12" d="M138.137 369.007l-14.142 0.008 -0.009 -25.854 15.588 0.699c-1.665,-3.053 -12.544,-1.856 -16.074,-1.159l-0.379 26.847c4.855,0.626 11.792,0.933 15.016,-0.541z"/>
 <path class="fil13" d="M80.546 404.978l1.105 0.246 -0.272 -25.487 17.977 -0.063 0.002 4.347c1.541,-1.693 1.74,1.475 1.467,-5.086l-20.469 0.082 0.19 25.961z"/>
 <path class="fil2" d="M22.3 405.088c2.45,2.508 17.975,1.69 20.989,0.552l-0.333 -4.995 -14.524 -0.704c1.463,1.993 -2.067,1.185 3.614,1.585 9.208,0.648 9.556,-3.083 10.251,3.132 -3.565,1.518 -16.082,0.846 -19.997,0.43z"/>
 <path class="fil2" d="M81.651 405.224l-1.105 -0.246c2.178,2.253 4.389,1.387 9.91,1.381 3.507,-0.004 6.862,0.185 10.613,-0.226l0.029 -5.435 -14.311 -0.885c1.289,1.906 -0.078,1.736 6.613,1.614 2.364,-0.043 4.731,-0.034 7.098,-0.054 -0.024,5.357 -0.092,4.003 -4.017,4.129l-14.83 -0.278z"/>
 <polygon class="fil14" points="148.892,333.341 149.358,332.382 131.799,332.398 131.849,306.593 130.982,306.75 130.977,333.195 "/>
 <path class="fil12" d="M151.911 369.467l-0.08 -26.102 19.72 0.267c-1.589,-2.419 -3.054,-1.405 -9.914,-1.375 -3.712,0.016 -6.867,-0.263 -10.458,0.542l0.732 26.668z"/>
 <path class="fil15" d="M131.849 306.593l4.915 -0.112 0.636 21.79 12.591 0.168 -0.633 3.943 -0.466 0.959c2.217,-1.883 0.915,0.905 1.709,-1.95 0.471,-1.691 0.039,-1.966 -0.162,-3.418l-12.796 -0.578 -0.09 -21.142c-6.745,-2.077 -5.958,-0.049 -6.571,0.497l0.867 -0.157z"/>
 <path class="fil16" d="M190.158 404.703l-4.851 0.654c-0.279,-6.87 -1.126,-20.328 0.754,-26.293 -1.993,1.421 -1.906,0.213 -1.79,6.797 0.04,2.316 0.025,4.619 0.019,6.934 -0.011,4.338 -0.608,9.237 0.61,13.282 3.967,0.395 4.07,1.19 5.258,-1.374z"/>
 <path class="fil17" d="M258.608 395.667l5.788 -0.046 -1.972 -6.765c-0.076,-0.15 -0.384,-0.265 -0.443,-0.628 -0.06,-0.369 -0.331,-0.404 -0.875,-0.739l-2.498 8.178z"/>
 <polygon class="fil18" points="112.656,322.521 118.886,322.481 116.118,313.979 "/>
 <polygon class="fil19" points="199.428,322.242 205.492,322.675 203.01,313.986 "/>
 <path class="fil2" d="M130.033 364.478l-0.069 -16.373 6.749 0.477c-1.573,-2.368 -4.592,-1.562 -7.3,-0.814 -0.505,3.047 -0.356,5.355 -0.371,8.446 -0.019,3.809 -0.59,5.384 0.991,8.264z"/>
 <path class="fil9" d="M158.251 353.182l-0.473 -5.003c6.7,-0.331 11.376,0.979 13.621,-1.375l-14.237 0.595c-0.101,1.272 -0.484,1.858 -0.314,2.951 0.407,2.62 0.124,1.387 1.403,2.832z"/>
 <path class="fil20" d="M179.98 405.905c0.744,-1.163 0.625,-0.314 1.079,-2.233 0.253,-1.072 -0.053,-1.526 -0.146,-2.857l-14.477 -0.415c1.827,1.449 -1.991,0.577 3.06,1.202 0.439,0.054 3.331,-0.054 4.005,-0.062 2.217,-0.027 4.403,-0.005 6.687,0.049l-0.208 4.316z"/>
 <path class="fil2" d="M104.938 405.51l3.235 0.896c1.018,0.082 1.7,-0.171 2.975,-0.243l0.614 -10.364c-1.597,1.571 -0.61,-0.5 -1.245,2.001 -0.061,0.24 -0.114,2.488 -0.12,2.86 -0.027,1.575 0.051,3.2 0.014,4.761l-5.473 0.089z"/>
 <path class="fil20" d="M122.683 332.404c0.881,0.544 0.4,0.815 2.35,1.123 1.153,0.182 2.878,-0.008 4.05,-0.054 -0.527,-3.661 -0.535,-1.872 -1.403,-2.826 -0.07,2.719 0.85,0.474 -0.645,1.984l-4.352 -0.227z"/>
 <path class="fil12" d="M209.252 331.659c1.238,3.12 2.724,2.166 6.6,1.658l-0.858 -2.039c-1.901,2.027 2.362,1.214 -2.887,1.36 -2.139,0.059 -1.301,-0.31 -2.855,-0.979z"/>
 <path class="fil2" d="M109.109 331.752c-2.242,0.887 -4.153,2.288 -5.503,-0.111l-1.132 1.516c1.364,0.338 2.509,0.907 3.828,0.637 4.939,-1.01 1.275,0.286 2.807,-2.042z"/>
 <path class="fil21" d="M121.758 405.401c2.068,1.249 -2.412,0.499 3.23,1.161 1.082,0.127 1.897,-0.167 3.15,-0.302l-1.018 -3.053c-0.575,3.007 0.882,1.058 -1.074,2.455l-4.288 -0.261z"/>
 <path class="fil9" d="M254.694 405.306c-4.454,0.215 -5.739,1.565 -5.265,-2.309l-1.264 2.65c1.287,0.475 0.917,0.903 3.457,0.853 4.972,-0.097 1.762,-0.346 3.072,-1.194z"/>
 <path class="fil22" d="M149.449 387.769c0.246,0.112 0.54,0.307 0.726,0.359 3.401,0.951 2.564,0.564 5.024,0.106 0.074,-0.255 0.226,-0.625 0.23,-0.761l-0.663 -2.168c-0.515,3.122 1.06,1.132 -1.037,2.5l-4.28 -0.036z"/>
</symbol>
 <g id="Capa_x0020_1">
  <metadata id="CorelCorpID_0Corel-Layer"/>
  <use x="12.086" y="7.115" width="276.38" height="407.181" xlink:href="#emergencia"/>
 </g>
</svg>
