<?xml version="1.0" encoding="UTF-8"?>
<!DOCTYPE svg PUBLIC "-//W3C//DTD SVG 1.1//EN" "http://www.w3.org/Graphics/SVG/1.1/DTD/svg11.dtd">
<!-- Creator: CorelDRAW 2017 -->
<svg xmlns="http://www.w3.org/2000/svg" xml:space="preserve" width="178px" height="132px" version="1.1" style="shape-rendering:geometricPrecision; text-rendering:geometricPrecision; image-rendering:optimizeQuality; fill-rule:evenodd; clip-rule:evenodd"
viewBox="0 0 178 131.999"
 xmlns:xlink="http://www.w3.org/1999/xlink">
 <defs>
  <style type="text/css">
   <![CDATA[
    .fil0 {fill:#3A7D4A}
    .fil6 {fill:#537B5C}
    .fil3 {fill:#7B9A82}
    .fil8 {fill:#94ADA2}
    .fil2 {fill:#9A9999}
    .fil5 {fill:#A5C7AB}
    .fil4 {fill:#C3D9C8}
    .fil7 {fill:#D8F2DD}
    .fil1 {fill:#FEFEFE}
   ]]>
  </style>
 </defs>
<symbol id="salida" viewBox="2.445 4.435 173.11 123.129">
 <path class="fil0" d="M103.165 88.108l10.972 0.141c-0.448,0.817 -1.015,1.865 -1.492,2.389 -1.87,2.058 -1.289,1.318 -3.375,2.49 -1.317,2.998 -16.965,19.18 -20.142,20.824 -1.299,-0.955 -23.91,-24.003 -24.538,-25.428l10.245 -0.25 0.113 -28.037c6.142,-1.533 21.662,-0.695 28.728,-0.596l-0.511 28.467zm-5.765 -67.8l5.253 0.139c3.642,1.472 0.941,-0.826 1.956,2.105l0.203 12.396c-0.012,5.154 0.189,10.353 -0.212,15.486l-9.112 0.131 -0.322 -27.105c0.846,-3.408 -0.366,-1.367 2.234,-3.152zm-16.655 23.398l9.676 -0.427c2.077,1.027 2.173,0.263 1.383,6.861l-20.582 0.52 -0.183 -30.49 9.276 0.157 0.43 23.379zm62.791 6.72l-7.434 -0.115 8.901 -29.762 8.605 -0.095 9.73 29.833 -7.65 -0.062 -1.997 -3.47 -7.359 -0.436 -2.796 4.107zm-94.669 -0.063l-7.519 -0.059c0.208,-5.93 6.589,-22.679 8.606,-29.707l9.014 -0.093 9.363 29.541 -8.324 0.209 -1.694 -3.93 -7.84 0.04 -1.606 3.999zm76.487 -1.331c-2.075,3.305 -12.33,2.208 -16.185,1.131l-0.387 -26.69c0.631,-3.105 -0.377,-1.372 1.929,-2.984 10.383,-0.381 19.637,-1.145 22.893,7.402 3.262,8.562 0.06,20.557 -8.25,21.141zm-110.509 -7.86l3.273 -2.737c0.179,-0.275 1.021,-1.736 1.125,-1.857 -12.6,-17.36 16.119,-24.988 19.216,-7.516 -14.94,-0.105 -7.574,-4.997 -13.756,-1.394 2.237,5.446 6.015,2.301 11.355,6.298 7.108,5.321 2.749,19.907 -12.422,16.618 -5.702,-1.236 -6.616,-4.414 -8.791,-9.412zm156.822 79.98l-0.199 -110.536c-13.048,-2.381 -138.641,1.009 -163.496,-0.79l-0.077 112.144c20.92,0.198 155.741,1.958 163.772,-0.818z"/>
 <path class="fil1" d="M109.27 93.128c-0.688,-1.969 0.086,-1.444 -1.776,-2.55 -1.604,-0.954 -1.393,-0.33 -2.122,-0.732l-2.207 -1.738 0.511 -28.467c-7.066,-0.099 -22.586,-0.937 -28.728,0.596l-0.113 28.037 -10.245 0.25c0.628,1.425 23.239,24.473 24.538,25.428 3.177,-1.644 18.825,-17.826 20.142,-20.824z"/>
 <path class="fil1" d="M171.468 10.616l0.199 110.536c-1.322,3.125 0.979,1.27 -2.459,2.206l-161.938 -0.022 -0.449 -114.488c26.453,-1.303 55.792,-0.155 82.307,-0.112l78.074 -0.17c7.251,0.772 2.192,-0.444 4.266,2.05zm-166.836 114.752l169.712 0.536c0.195,-19.996 0.032,-39.921 0.023,-59.755 -0.006,-14.369 1.728,-47.772 -0.562,-59.94l-169.043 -0.045 -0.13 119.204z"/>
 <path class="fil2" d="M4.762 6.164l169.043 0.045c2.29,12.168 0.556,45.571 0.562,59.94 0.009,19.834 0.172,39.759 -0.023,59.755l-169.712 -0.536 0.13 -119.204zm-1.801 121.284l172.503 0.116 0.091 -122.923 -173.11 -0.206 0.516 123.013z"/>
 <path class="fil1" d="M118.264 43.108l-0.105 -15.402c5.842,-0.191 7.857,1.029 7.833,7.237 -0.021,6.019 -2.066,7.957 -7.728,8.165zm7.09 5.924c8.31,-0.584 11.512,-12.579 8.25,-21.141 -3.256,-8.547 -12.51,-7.783 -22.893,-7.402l-0.599 29.106 15.242 -0.563z"/>
 <path class="fil1" d="M19.243 36.578c4.17,1.255 9.795,1.916 11.635,5.651 -4.859,4.185 -4.441,0.328 -9.352,-1.288l-6.681 0.231c2.175,4.998 3.089,8.176 8.791,9.412 15.171,3.289 19.53,-11.297 12.422,-16.618 -5.34,-3.997 -9.118,-0.852 -11.355,-6.298 6.182,-3.603 -1.184,1.289 13.756,1.394 -3.097,-17.472 -31.816,-9.844 -19.216,7.516z"/>
 <path class="fil3" d="M171.667 121.152c-8.031,2.776 -142.852,1.016 -163.772,0.818l0.077 -112.144c24.855,1.799 150.448,-1.591 163.496,0.79 -2.074,-2.494 2.985,-1.278 -4.266,-2.05l-78.074 0.17c-26.515,-0.043 -55.854,-1.191 -82.307,0.112l0.449 114.488 161.938 0.022c3.438,-0.936 1.137,0.919 2.459,-2.206z"/>
 <path class="fil1" d="M54.856 30.969l1.875 8.989 -4.696 -0.079 2.821 -8.91zm-4.383 15.395l7.84 -0.04 1.694 3.93 8.324 -0.209 -9.363 -29.541 -9.014 0.093c-2.017,7.028 -8.398,23.777 -8.606,29.707l7.519 0.059 1.606 -3.999z"/>
 <path class="fil1" d="M147.693 34.208l1.375 -3.422 1.717 2.663 0.982 6.352 -4.386 0.202 0.312 -5.795zm-1.361 12.111l7.359 0.436 1.997 3.47 7.65 0.062 -9.73 -29.833 -8.605 0.095 -8.901 29.762 7.434 0.115 2.796 -4.107z"/>
 <path class="fil1" d="M90.421 43.279l-9.676 0.427c-2.765,-1.583 -2.064,1.404 -2.014,-10.838 0.019,-4.475 0.04,-7.79 0.499,-11.698l-6.635 0.217 -0.147 27.777 18.229 0.137 -0.256 -6.022z"/>
 <path class="fil1" d="M102.653 20.447l-5.253 -0.139c-1.738,5.386 -1.31,22.435 -0.916,28.918l6.737 -0.098c0.801,-6.167 1.104,-23.084 -0.568,-28.681z"/>
 <path class="fil4" d="M90.421 43.279l0.256 6.022 -18.229 -0.137 0.147 -27.777 6.635 -0.217c-0.459,3.908 -0.48,7.223 -0.499,11.698 -0.05,12.242 -0.751,9.255 2.014,10.838l-0.43 -23.379 -9.276 -0.157 0.183 30.49 20.582 -0.52c0.79,-6.598 0.694,-5.834 -1.383,-6.861z"/>
 <path class="fil0" d="M118.264 43.108c5.662,-0.208 7.707,-2.146 7.728,-8.165 0.024,-6.208 -1.991,-7.428 -7.833,-7.237l0.105 15.402z"/>
 <path class="fil4" d="M102.653 20.447c1.672,5.597 1.369,22.514 0.568,28.681l-6.737 0.098c-0.394,-6.483 -0.822,-23.532 0.916,-28.918 -2.6,1.785 -1.388,-0.256 -2.234,3.152l0.322 27.105 9.112 -0.131c0.401,-5.133 0.2,-10.332 0.212,-15.486l-0.203 -12.396c-1.015,-2.931 1.686,-0.633 -1.956,-2.105z"/>
 <path class="fil5" d="M125.354 49.032l-15.242 0.563 0.599 -29.106c-2.306,1.612 -1.298,-0.121 -1.929,2.984l0.387 26.69c3.855,1.077 14.11,2.174 16.185,-1.131z"/>
 <path class="fil6" d="M14.845 41.172l6.681 -0.231c4.911,1.616 4.493,5.473 9.352,1.288 -1.84,-3.735 -7.465,-4.396 -11.635,-5.651 -0.104,0.121 -0.946,1.582 -1.125,1.857l-3.273 2.737z"/>
 <path class="fil7" d="M109.27 93.128c2.086,-1.172 1.505,-0.432 3.375,-2.49 0.477,-0.524 1.044,-1.572 1.492,-2.389l-10.972 -0.141 2.207 1.738c0.729,0.402 0.518,-0.222 2.122,0.732 1.862,1.106 1.088,0.581 1.776,2.55z"/>
 <polygon class="fil6" points="147.693,34.208 147.381,40.003 151.767,39.801 150.785,33.449 "/>
 <polygon class="fil6" points="52.035,39.879 56.731,39.958 54.856,30.969 "/>
 <polygon class="fil8" points="147.693,34.208 150.785,33.449 149.068,30.786 "/>
</symbol>
 <g id="Capa_x0020_1">
  <metadata id="CorelCorpID_0Corel-Layer"/>
  <use x="2.123" y="4.152" width="173.11" height="123.129" xlink:href="#salida"/>
 </g>
</svg>
