<?xml version="1.0" encoding="UTF-8"?>
<!DOCTYPE svg PUBLIC "-//W3C//DTD SVG 1.1//EN" "http://www.w3.org/Graphics/SVG/1.1/DTD/svg11.dtd">
<!-- Creator: CorelDRAW 2017 -->
<svg xmlns="http://www.w3.org/2000/svg" xml:space="preserve" width="2100px" height="150px" version="1.1" style="shape-rendering:geometricPrecision; text-rendering:geometricPrecision; image-rendering:optimizeQuality; fill-rule:evenodd; clip-rule:evenodd"
viewBox="0 0 2100 150"
 xmlns:xlink="http://www.w3.org/1999/xlink">
 <defs>
  <style type="text/css">
   <![CDATA[
    .str0 {stroke:black;stroke-width:10;stroke-miterlimit:22.9256}
    .fil0 {fill:none;fill-rule:nonzero}
    .fil1 {fill:black;fill-rule:nonzero}
   ]]>
  </style>
 </defs>
<symbol id="pantalla" viewBox="45 27.211 2010 92.866">
 <path class="fil0 str0" d="M2050 117.789c0,-28.526 -2000,-28.526 -2000,0 0,-21.395 0,-42.789 0,-64.184 0,-28.526 2000,-28.526 2000,0 0,21.395 0,42.789 0,64.184z"/>
 <path class="fil1" d="M788.648 72.867l0 -28.64 9.273 0c3.514,0 5.8,0.14 6.867,0.427 1.64,0.433 3.013,1.366 4.12,2.806 1.107,1.44 1.66,3.301 1.66,5.58 0,1.761 -0.32,3.234 -0.953,4.434 -0.64,1.2 -1.447,2.14 -2.427,2.826 -0.98,0.68 -1.98,1.134 -2.993,1.354 -1.38,0.273 -3.374,0.413 -5.987,0.413l-3.76 0 0 10.8 -5.8 0zm5.8 -23.8l0 8.16 3.154 0c2.273,0 3.786,-0.153 4.553,-0.453 0.767,-0.3 1.366,-0.767 1.8,-1.414 0.433,-0.64 0.653,-1.38 0.653,-2.233 0,-1.047 -0.306,-1.906 -0.913,-2.586 -0.614,-0.681 -1.38,-1.107 -2.32,-1.281 -0.687,-0.126 -2.067,-0.193 -4.147,-0.193l-2.78 0zm89.278 23.8l-6.247 0 -2.473 -6.52 -11.487 0 -2.38 6.52 -6.133 0 11.12 -28.64 6.127 0 11.473 28.64zm-10.6 -11.36l-3.98 -10.6 -3.867 10.6 7.847 0zm59.251 11.36l0 -28.64 5.613 0 11.787 19.193 0 -19.193 5.36 0 0 28.64 -5.793 0 -11.607 -18.827 0 18.827 -5.36 0zm80.891 0l0 -23.8 -8.48 0 0 -4.84 22.72 0 0 4.84 -8.44 0 0 23.8 -5.8 0zm86.391 0l-6.247 0 -2.473 -6.52 -11.487 0 -2.38 6.52 -6.133 0 11.12 -28.64 6.127 0 11.473 28.64zm-10.6 -11.36l-3.98 -10.6 -3.867 10.6 7.847 0zm59.411 11.36l0 -28.4 5.8 0 0 23.56 14.36 0 0 4.84 -20.16 0zm69.998 0l0 -28.4 5.8 0 0 23.56 14.36 0 0 4.84 -20.16 0zm95.637 0l-6.246 0 -2.474 -6.52 -11.486 0 -2.38 6.52 -6.134 0 11.12 -28.64 6.127 0 11.473 28.64zm-10.6 -11.36l-3.98 -10.6 -3.867 10.6 7.847 0z"/>
</symbol>
 <g id="Capa_x0020_1">
  <metadata id="CorelCorpID_0Corel-Layer"/>
  <use x="45.174" y="20.5" width="2010" height="92.866" xlink:href="#pantalla"/>
 </g>
</svg>
